<svg width="152" height="32" viewBox="0 0 152 32" fill="none" xmlns="http://www.w3.org/2000/svg">
<path d="M41.626 10.526H47.44V13.28H41.626V10.526ZM41.878 17.6H38.314V5H48.196V7.754H41.878V17.6Z" fill="#2F302C"/>
<path d="M56.7568 17.852C54.8968 17.852 53.4448 17.342 52.4008 16.322C51.3568 15.302 50.8348 13.856 50.8348 11.984V5H54.3988V11.876C54.3988 12.956 54.6088 13.73 55.0288 14.198C55.4608 14.666 56.0488 14.9 56.7928 14.9C57.5368 14.9 58.1188 14.666 58.5388 14.198C58.9588 13.73 59.1688 12.956 59.1688 11.876V5H62.6788V11.984C62.6788 13.856 62.1568 15.302 61.1128 16.322C60.0688 17.342 58.6168 17.852 56.7568 17.852Z" fill="#2F302C"/>
<path d="M66.1732 17.6V5H71.9332C73.0852 5 74.0752 5.186 74.9032 5.558C75.7432 5.93 76.3912 6.47 76.8472 7.178C77.3032 7.874 77.5312 8.702 77.5312 9.662C77.5312 10.61 77.3032 11.432 76.8472 12.128C76.3912 12.812 75.7432 13.34 74.9032 13.712C74.0752 14.072 73.0852 14.252 71.9332 14.252H68.1532L69.7372 12.758V17.6H66.1732ZM73.9672 17.6L70.8352 13.01H74.6332L77.7832 17.6H73.9672ZM69.7372 13.136L68.1532 11.498H71.7172C72.4612 11.498 73.0132 11.336 73.3732 11.012C73.7452 10.688 73.9312 10.238 73.9312 9.662C73.9312 9.074 73.7452 8.618 73.3732 8.294C73.0132 7.97 72.4612 7.808 71.7172 7.808H68.1532L69.7372 6.17V13.136Z" fill="#2F302C"/>
<path d="M80.5774 17.6V5H83.5114L90.4594 13.388H89.0734V5H92.5654V17.6H89.6314L82.6834 9.212H84.0694V17.6H80.5774Z" fill="#2F302C"/>
<path d="M96.1594 17.6V5H99.7234V17.6H96.1594Z" fill="#2F302C"/>
<path d="M106.021 17.6V7.826H102.151V5H113.437V7.826H109.585V17.6H106.021Z" fill="#2F302C"/>
<path d="M121.465 17.852C119.605 17.852 118.153 17.342 117.109 16.322C116.065 15.302 115.543 13.856 115.543 11.984V5H119.107V11.876C119.107 12.956 119.317 13.73 119.737 14.198C120.169 14.666 120.757 14.9 121.501 14.9C122.245 14.9 122.827 14.666 123.247 14.198C123.667 13.73 123.877 12.956 123.877 11.876V5H127.387V11.984C127.387 13.856 126.865 15.302 125.821 16.322C124.777 17.342 123.325 17.852 121.465 17.852Z" fill="#2F302C"/>
<path d="M130.882 17.6V5H136.642C137.794 5 138.784 5.186 139.612 5.558C140.452 5.93 141.1 6.47 141.556 7.178C142.012 7.874 142.24 8.702 142.24 9.662C142.24 10.61 142.012 11.432 141.556 12.128C141.1 12.812 140.452 13.34 139.612 13.712C138.784 14.072 137.794 14.252 136.642 14.252H132.862L134.446 12.758V17.6H130.882ZM138.676 17.6L135.544 13.01H139.342L142.492 17.6H138.676ZM134.446 13.136L132.862 11.498H136.426C137.17 11.498 137.722 11.336 138.082 11.012C138.454 10.688 138.64 10.238 138.64 9.662C138.64 9.074 138.454 8.618 138.082 8.294C137.722 7.97 137.17 7.808 136.426 7.808H132.862L134.446 6.17V13.136Z" fill="#2F302C"/>
<path d="M39.0479 30.26V28.598L39.2219 29.078L37.3979 26.06H38.2319L39.6959 28.49H39.2279L40.7039 26.06H41.4719L39.6479 29.078L39.8279 28.598V30.26H39.0479Z" fill="#2F302C"/>
<path d="M44.8491 30.32C44.5211 30.32 44.2191 30.266 43.9431 30.158C43.6671 30.05 43.4271 29.9 43.2231 29.708C43.0191 29.512 42.8611 29.284 42.7491 29.024C42.6371 28.76 42.5811 28.472 42.5811 28.16C42.5811 27.848 42.6371 27.562 42.7491 27.302C42.8611 27.038 43.0191 26.81 43.2231 26.618C43.4271 26.422 43.6671 26.27 43.9431 26.162C44.2191 26.054 44.5191 26 44.8431 26C45.1711 26 45.4711 26.054 45.7431 26.162C46.0191 26.27 46.2591 26.422 46.4631 26.618C46.6671 26.81 46.8251 27.038 46.9371 27.302C47.0491 27.562 47.1051 27.848 47.1051 28.16C47.1051 28.472 47.0491 28.76 46.9371 29.024C46.8251 29.288 46.6671 29.516 46.4631 29.708C46.2591 29.9 46.0191 30.05 45.7431 30.158C45.4711 30.266 45.1731 30.32 44.8491 30.32ZM44.8431 29.636C45.0551 29.636 45.2511 29.6 45.4311 29.528C45.6111 29.456 45.7671 29.354 45.8991 29.222C46.0311 29.086 46.1331 28.93 46.2051 28.754C46.2811 28.574 46.3191 28.376 46.3191 28.16C46.3191 27.944 46.2811 27.748 46.2051 27.572C46.1331 27.392 46.0311 27.236 45.8991 27.104C45.7671 26.968 45.6111 26.864 45.4311 26.792C45.2511 26.72 45.0551 26.684 44.8431 26.684C44.6311 26.684 44.4351 26.72 44.2551 26.792C44.0791 26.864 43.9231 26.968 43.7871 27.104C43.6551 27.236 43.5511 27.392 43.4751 27.572C43.4031 27.748 43.3671 27.944 43.3671 28.16C43.3671 28.372 43.4031 28.568 43.4751 28.748C43.5511 28.928 43.6551 29.086 43.7871 29.222C43.9191 29.354 44.0751 29.456 44.2551 29.528C44.4351 29.6 44.6311 29.636 44.8431 29.636Z" fill="#2F302C"/>
<path d="M50.8179 30.32C50.2419 30.32 49.7899 30.158 49.4619 29.834C49.1379 29.51 48.9759 29.042 48.9759 28.43V26.06H49.7559V28.4C49.7559 28.832 49.8479 29.146 50.0319 29.342C50.2199 29.538 50.4839 29.636 50.8239 29.636C51.1639 29.636 51.4259 29.538 51.6099 29.342C51.7939 29.146 51.8859 28.832 51.8859 28.4V26.06H52.6539V28.43C52.6539 29.042 52.4899 29.51 52.1619 29.834C51.8379 30.158 51.3899 30.32 50.8179 30.32Z" fill="#2F302C"/>
<path d="M54.8263 30.26V26.06H56.5543C56.9263 26.06 57.2443 26.12 57.5083 26.24C57.7763 26.36 57.9823 26.532 58.1263 26.756C58.2703 26.98 58.3423 27.246 58.3423 27.554C58.3423 27.862 58.2703 28.128 58.1263 28.352C57.9823 28.572 57.7763 28.742 57.5083 28.862C57.2443 28.978 56.9263 29.036 56.5543 29.036H55.2583L55.6063 28.682V30.26H54.8263ZM57.5743 30.26L56.5123 28.736H57.3463L58.4143 30.26H57.5743ZM55.6063 28.766L55.2583 28.394H56.5183C56.8623 28.394 57.1203 28.32 57.2923 28.172C57.4683 28.024 57.5563 27.818 57.5563 27.554C57.5563 27.286 57.4683 27.08 57.2923 26.936C57.1203 26.792 56.8623 26.72 56.5183 26.72H55.2583L55.6063 26.336V28.766Z" fill="#2F302C"/>
<path d="M63.7471 27.992H65.8411V28.652H63.7471V27.992ZM63.8131 30.26H63.0331V26.06H66.0991V26.714H63.8131V30.26Z" fill="#2F302C"/>
<path d="M69.7394 30.32C69.1634 30.32 68.7114 30.158 68.3834 29.834C68.0595 29.51 67.8974 29.042 67.8974 28.43V26.06H68.6775V28.4C68.6775 28.832 68.7694 29.146 68.9534 29.342C69.1414 29.538 69.4054 29.636 69.7454 29.636C70.0854 29.636 70.3475 29.538 70.5314 29.342C70.7154 29.146 70.8074 28.832 70.8074 28.4V26.06H71.5755V28.43C71.5755 29.042 71.4114 29.51 71.0835 29.834C70.7594 30.158 70.3114 30.32 69.7394 30.32Z" fill="#2F302C"/>
<path d="M74.5237 30.26V26.72H73.1317V26.06H76.6957V26.72H75.3037V30.26H74.5237Z" fill="#2F302C"/>
<path d="M80.0909 30.32C79.5149 30.32 79.0629 30.158 78.7349 29.834C78.4109 29.51 78.2489 29.042 78.2489 28.43V26.06H79.0289V28.4C79.0289 28.832 79.1209 29.146 79.3049 29.342C79.4929 29.538 79.7569 29.636 80.0969 29.636C80.4369 29.636 80.6989 29.538 80.8829 29.342C81.0669 29.146 81.1589 28.832 81.1589 28.4V26.06H81.9269V28.43C81.9269 29.042 81.7629 29.51 81.4349 29.834C81.1109 30.158 80.6629 30.32 80.0909 30.32Z" fill="#2F302C"/>
<path d="M84.0992 30.26V26.06H85.8272C86.1992 26.06 86.5172 26.12 86.7812 26.24C87.0492 26.36 87.2552 26.532 87.3992 26.756C87.5432 26.98 87.6152 27.246 87.6152 27.554C87.6152 27.862 87.5432 28.128 87.3992 28.352C87.2552 28.572 87.0492 28.742 86.7812 28.862C86.5172 28.978 86.1992 29.036 85.8272 29.036H84.5312L84.8792 28.682V30.26H84.0992ZM86.8472 30.26L85.7852 28.736H86.6192L87.6872 30.26H86.8472ZM84.8792 28.766L84.5312 28.394H85.7912C86.1352 28.394 86.3932 28.32 86.5652 28.172C86.7412 28.024 86.8292 27.818 86.8292 27.554C86.8292 27.286 86.7412 27.08 86.5652 26.936C86.3932 26.792 86.1352 26.72 85.7912 26.72H84.5312L84.8792 26.336V28.766Z" fill="#2F302C"/>
<path d="M90.2879 27.806H92.3759V28.448H90.2879V27.806ZM90.3479 29.606H92.7179V30.26H89.5679V26.06H92.6339V26.714H90.3479V29.606Z" fill="#2F302C"/>
<path d="M97.4056 30.26V26.06H98.1856V30.26H97.4056Z" fill="#2F302C"/>
<path d="M100.402 30.26V26.06H101.044L103.678 29.294H103.36V26.06H104.134V30.26H103.492L100.858 27.026H101.176V30.26H100.402Z" fill="#2F302C"/>
<path d="M107.191 30.26V26.72H105.799V26.06H109.363V26.72H107.971V30.26H107.191Z" fill="#2F302C"/>
<path d="M111.748 27.806H113.836V28.448H111.748V27.806ZM111.808 29.606H114.178V30.26H111.028V26.06H114.094V26.714H111.808V29.606Z" fill="#2F302C"/>
<path d="M116.128 30.26V26.06H117.856C118.228 26.06 118.546 26.12 118.81 26.24C119.078 26.36 119.284 26.532 119.428 26.756C119.572 26.98 119.644 27.246 119.644 27.554C119.644 27.862 119.572 28.128 119.428 28.352C119.284 28.572 119.078 28.742 118.81 28.862C118.546 28.978 118.228 29.036 117.856 29.036H116.56L116.908 28.682V30.26H116.128ZM118.876 30.26L117.814 28.736H118.648L119.716 30.26H118.876ZM116.908 28.766L116.56 28.394H117.82C118.164 28.394 118.422 28.32 118.594 28.172C118.77 28.024 118.858 27.818 118.858 27.554C118.858 27.286 118.77 27.08 118.594 26.936C118.422 26.792 118.164 26.72 117.82 26.72H116.56L116.908 26.336V28.766Z" fill="#2F302C"/>
<path d="M121.597 30.26V26.06H122.377V30.26H121.597Z" fill="#2F302C"/>
<path d="M126.561 30.32C126.233 30.32 125.931 30.266 125.655 30.158C125.379 30.05 125.139 29.9 124.935 29.708C124.731 29.512 124.573 29.284 124.461 29.024C124.349 28.76 124.293 28.472 124.293 28.16C124.293 27.848 124.349 27.562 124.461 27.302C124.573 27.038 124.731 26.81 124.935 26.618C125.139 26.422 125.379 26.27 125.655 26.162C125.931 26.054 126.231 26 126.555 26C126.883 26 127.183 26.054 127.455 26.162C127.731 26.27 127.971 26.422 128.175 26.618C128.379 26.81 128.537 27.038 128.649 27.302C128.761 27.562 128.817 27.848 128.817 28.16C128.817 28.472 128.761 28.76 128.649 29.024C128.537 29.288 128.379 29.516 128.175 29.708C127.971 29.9 127.731 30.05 127.455 30.158C127.183 30.266 126.885 30.32 126.561 30.32ZM126.555 29.636C126.767 29.636 126.963 29.6 127.143 29.528C127.323 29.456 127.479 29.354 127.611 29.222C127.743 29.086 127.845 28.93 127.917 28.754C127.993 28.574 128.031 28.376 128.031 28.16C128.031 27.944 127.993 27.748 127.917 27.572C127.845 27.392 127.743 27.236 127.611 27.104C127.479 26.968 127.323 26.864 127.143 26.792C126.963 26.72 126.767 26.684 126.555 26.684C126.343 26.684 126.147 26.72 125.967 26.792C125.791 26.864 125.635 26.968 125.499 27.104C125.367 27.236 125.263 27.392 125.187 27.572C125.115 27.748 125.079 27.944 125.079 28.16C125.079 28.372 125.115 28.568 125.187 28.748C125.263 28.928 125.367 29.086 125.499 29.222C125.631 29.354 125.787 29.456 125.967 29.528C126.147 29.6 126.343 29.636 126.555 29.636Z" fill="#2F302C"/>
<path d="M130.723 30.26V26.06H132.451C132.823 26.06 133.141 26.12 133.405 26.24C133.673 26.36 133.879 26.532 134.023 26.756C134.167 26.98 134.239 27.246 134.239 27.554C134.239 27.862 134.167 28.128 134.023 28.352C133.879 28.572 133.673 28.742 133.405 28.862C133.141 28.978 132.823 29.036 132.451 29.036H131.155L131.503 28.682V30.26H130.723ZM133.471 30.26L132.409 28.736H133.243L134.311 30.26H133.471ZM131.503 28.766L131.155 28.394H132.415C132.759 28.394 133.017 28.32 133.189 28.172C133.365 28.024 133.453 27.818 133.453 27.554C133.453 27.286 133.365 27.08 133.189 26.936C133.017 26.792 132.759 26.72 132.415 26.72H131.155L131.503 26.336V28.766Z" fill="#2F302C"/>
<path d="M25.2 4.00043C25.2 17.1448 14.5444 27.8004 1.39999 27.8004C0.930023 27.8004 0.463234 27.7868 0 27.7599V30.5642C0.463623 30.5883 0.930387 30.6004 1.39999 30.6004C16.0908 30.6004 28 18.6912 28 4.00043C28 4.0003 28 4.00056 28 4.00043H25.2C25.2 4.00056 25.2 4.0003 25.2 4.00043Z" fill="#2F302C"/>
<path d="M23.8 4.00004C23.8 3.99991 23.8 4.00017 23.8 4.00004C23.8 16.3712 13.7712 26.4004 1.39999 26.4004C0.929804 26.4004 0.462999 26.3859 0 26.3574V23.5512C0.46242 23.5838 0.929269 23.6004 1.39999 23.6004C12.2248 23.6004 21 14.8252 21 4.00043C21 4.0003 21 4.00056 21 4.00043L23.8 4.00004Z" fill="#2F302C"/>
<path d="M0 22.1474C0.462056 22.1825 0.928935 22.2004 1.39999 22.2004C11.4516 22.2004 19.6 14.052 19.6 4.00043C19.6 4.0003 19.6 4.00056 19.6 4.00043L16.8 4.00004C16.8 3.99991 16.8 4.00017 16.8 4.00004C16.8 12.5052 9.90518 19.4004 1.39999 19.4004C0.92807 19.4004 0.461105 19.3792 0 19.3376V22.1474Z" fill="#2F302C"/>
<path d="M0 17.9313C0.460467 17.977 0.927496 18.0004 1.39999 18.0004C9.13198 18.0004 15.4 11.7324 15.4 4.00043C15.4 4.0003 15.4 4.00056 15.4 4.00043L12.6 4.00004C12.6 3.99991 12.6 4.00017 12.6 4.00004C12.6 10.1856 7.58558 15.2004 1.39999 15.2004C0.925871 15.2004 0.45863 15.171 0 15.1138V17.9313Z" fill="#2F302C"/>
<path d="M0 13.7012C0.457242 13.7666 0.924666 13.8004 1.39999 13.8004C6.81238 13.8004 11.2 9.41282 11.2 4.00043C11.2 4.0003 11.2 4.00056 11.2 4.00043L8.39999 4.00004C8.39999 3.99991 8.39999 4.00017 8.39999 4.00004C8.39999 7.86603 5.26599 11.0004 1.39999 11.0004C0.920543 11.0004 0.452352 10.9522 0 10.8604V13.7012Z" fill="#2F302C"/>
<path d="M0 9.42401C0.447466 9.53917 0.916576 9.60043 1.39999 9.60043C4.49279 9.60043 6.99999 7.09322 6.99999 4.00043C6.99999 4.0003 6.99999 4.00056 6.99999 4.00043L0 4.00004V9.42401Z" fill="#2F302C"/>
<path d="M28 12.7677C27.7147 13.6337 27.3884 14.481 27.0232 15.3073C27.3521 15.3461 27.6778 15.3953 28 15.4544V12.7677Z" fill="#2F302C"/>
<path d="M28 16.8806C27.4723 16.7735 26.9339 16.696 26.3865 16.6501C25.9036 17.602 25.3679 18.5227 24.7833 19.4081C24.9216 19.4031 25.0605 19.4005 25.2 19.4005C26.1668 19.4005 27.1051 19.523 28 19.7534V16.8806Z" fill="#2F302C"/>
<path d="M14.0866 32H11.2691C11.2234 31.5397 11.2 31.0729 11.2 30.6005C11.2 30.4786 11.2016 30.357 11.2046 30.2359C12.205 29.8619 13.1783 29.4323 14.1206 28.9508C14.0412 29.4892 14 30.0401 14 30.6005C14 31.0745 14.0294 31.5416 14.0866 32Z" fill="#2F302C"/>
<path d="M28 21.2063C27.1128 20.9423 26.173 20.8005 25.2 20.8005C24.6962 20.8005 24.2013 20.8385 23.718 20.9118C21.5445 23.7757 18.8325 26.2084 15.7328 28.059C15.5157 28.8696 15.4 29.7215 15.4 30.6005C15.4 31.0757 15.4338 31.5429 15.4992 32H18.3399C18.2482 31.5478 18.2 31.0798 18.2 30.6005C18.2 26.7345 21.334 23.6005 25.2 23.6005C26.1955 23.6005 27.1426 23.8083 28 24.183V21.2063Z" fill="#2F302C"/>
<path d="M28 25.7497C27.1763 25.2732 26.22 25.0005 25.2 25.0005C22.1072 25.0005 19.6 27.5077 19.6 30.6005C19.6 31.0838 19.6612 31.5527 19.7763 32H28V25.7497Z" fill="#2F302C"/>
<path d="M9.86273 32H7.05301C7.03878 31.813 7.02739 31.6252 7.01886 31.4366C7.96425 31.244 8.89231 31.0038 9.80044 30.7185C9.80368 31.1502 9.82467 31.5776 9.86273 32Z" fill="#2F302C"/>
<path d="M5.64919 32C5.64176 31.8946 5.63515 31.789 5.62939 31.6832C4.71367 31.8219 3.78339 31.9163 2.84081 31.9641C2.84153 31.9761 2.84226 31.9881 2.843 32H5.64919Z" fill="#2F302C"/>
<path d="M1.23418 32C0.820602 31.9976 0.409146 31.9863 0 31.9661V32H1.23418Z" fill="#2F302C"/>
<path d="M145.146 2.33333H146.313V5.25H146.896V2.33333H148.063V1.75H145.146V2.33333Z" fill="black"/>
<path d="M151.125 1.75L150.25 3.26667L149.375 1.75H148.646V5.25H149.229V2.65417L150.25 4.43333L151.271 2.65417V5.25H151.854V1.75H151.125Z" fill="black"/>
</svg>
