<svg width="44" height="44" viewBox="0 0 24 24" fill="none" xmlns="http://www.w3.org/2000/svg">
<path d="M4.50024 20.25C4.37917 20.2521 4.25939 20.2248 4.15115 20.1705C4.0429 20.1163 3.94941 20.0366 3.87865 19.9383C3.8079 19.8401 3.76199 19.7261 3.74486 19.6063C3.72772 19.4864 3.73986 19.3641 3.78024 19.25L5.38024 14C5.0329 13.0971 4.85657 12.1374 4.86024 11.17C4.85864 10.1057 5.06942 9.0518 5.48024 8.06999C5.88279 7.13023 6.45962 6.27518 7.18024 5.54999C7.90357 4.82245 8.76331 4.24476 9.71024 3.84999C10.6892 3.4344 11.7418 3.22021 12.8052 3.22021C13.8687 3.22021 14.9213 3.4344 15.9002 3.84999C17.3344 4.46429 18.5576 5.48452 19.4193 6.7851C20.281 8.08568 20.7437 9.60985 20.7502 11.17C20.744 13.2771 19.9067 15.2966 18.4202 16.79C17.695 17.5106 16.84 18.0874 15.9002 18.49C14.0094 19.2819 11.8867 19.3177 9.97024 18.59L4.72024 20.19C4.65015 20.2204 4.57606 20.2406 4.50024 20.25ZM12.8002 4.74999C11.5337 4.75547 10.2964 5.13143 9.24092 5.83153C8.18544 6.53164 7.35788 7.52528 6.86024 8.68999C6.19908 10.2911 6.19908 12.0889 6.86024 13.69C6.91981 13.8548 6.91981 14.0352 6.86024 14.2L5.63024 18.37L9.78024 17.11C9.94502 17.0504 10.1255 17.0504 10.2902 17.11C11.0827 17.439 11.9322 17.6083 12.7902 17.6083C13.6482 17.6083 14.4978 17.439 15.2902 17.11C16.071 16.7813 16.7793 16.3018 17.3744 15.6989C17.9696 15.096 18.44 14.3816 18.7586 13.5967C19.0772 12.8118 19.2378 11.9717 19.2312 11.1245C19.2247 10.2774 19.051 9.4399 18.7202 8.65999C18.2237 7.50094 17.3983 6.51285 16.3461 5.81792C15.294 5.123 14.0612 4.75171 12.8002 4.74999Z" fill="black"/>
</svg>
