<svg width="17" height="15" viewBox="0 0 17 15" fill="none" xmlns="http://www.w3.org/2000/svg">
  <path d="M1.03546 3.06496C1.22391 2.60998 1.50014 2.19659 1.84837 1.84837C2.19659 1.50014 2.60998 1.22391 3.06496 1.03546C3.51993 0.846998 4.00757 0.75 4.50003 0.75C4.99249 0.75 5.48013 0.846998 5.93511 1.03546C6.39008 1.22391 6.80348 1.50014 7.1517 1.84837L8.25003 2.9467L9.34837 1.84837C10.0516 1.1451 11.0055 0.75001 12 0.75001C12.9946 0.75001 13.9484 1.1451 14.6517 1.84837C15.355 2.55163 15.7501 3.50546 15.7501 4.50003C15.7501 5.4946 15.355 6.44843 14.6517 7.1517L8.25003 13.5534L1.84837 7.1517C1.50014 6.80348 1.22391 6.39008 1.03546 5.93511C0.846998 5.48013 0.75 4.99249 0.75 4.50003C0.75 4.00757 0.846998 3.51993 1.03546 3.06496Z" stroke="#2F302C" stroke-width="1.5" stroke-linecap="round" stroke-linejoin="round" />
</svg>
