<svg width="60" height="60" viewBox="0 0 60 60" fill="none" xmlns="http://www.w3.org/2000/svg">
<path d="M50.4874 46.9535H9.51264C8.18079 46.952 6.90393 46.4222 5.96222 45.4804C5.0205 44.5386 4.49084 43.2617 4.48944 41.9299V16.6243C4.49084 15.2924 5.0205 14.0155 5.96222 13.0737C6.90393 12.1319 8.18079 11.6021 9.51264 11.6006H50.4874C51.8192 11.6021 53.0961 12.1319 54.0378 13.0737C54.9795 14.0155 55.5092 15.2924 55.5106 16.6243V41.9299C55.5092 43.2617 54.9795 44.5386 54.0378 45.4804C53.0961 46.4222 51.8192 46.952 50.4874 46.9535ZM9.51264 13.5206C8.68981 13.5215 7.90094 13.8488 7.31916 14.4306C6.73738 15.0125 6.4102 15.8014 6.40944 16.6243V41.9299C6.4102 42.7527 6.73738 43.5416 7.31916 44.1235C7.90094 44.7054 8.68981 45.0327 9.51264 45.0335H50.4874C51.3102 45.0327 52.0991 44.7054 52.6808 44.1235C53.2626 43.5416 53.5898 42.7527 53.5906 41.9299V16.6243C53.5898 15.8014 53.2626 15.0125 52.6808 14.4306C52.0991 13.8488 51.3102 13.5215 50.4874 13.5206H9.51264Z" fill="black"/>
<path d="M30 34.9263C29.766 34.9264 29.54 34.8411 29.3645 34.6863L6.22852 14.2632L7.49908 12.8232L30 32.6876L52.502 12.8256L53.7725 14.2656L30.6365 34.6887C30.4605 34.843 30.2341 34.9276 30 34.9263Z" fill="black"/>
<path d="M5.70642 43.9385L21.2489 26.2294L22.6928 27.4966L7.15026 45.2057L5.70642 43.9385Z" fill="black"/>
<path d="M37.3561 27.4783L38.8 26.2111L54.3428 43.9205L52.899 45.1877L37.3561 27.4783Z" fill="black"/>
</svg>
