<svg width="16" height="16" viewBox="0 0 16 16" fill="none" xmlns="http://www.w3.org/2000/svg">
  <path d="M7.23879 2.34166C7.47879 1.60486 8.52119 1.60486 8.76039 2.34166L9.61639 4.97526C9.66869 5.13565 9.77035 5.27541 9.90685 5.37455C10.0433 5.47369 10.2077 5.52714 10.3764 5.52726H13.146C13.9212 5.52726 14.2428 6.51926 13.6164 6.97526L11.3764 8.60246C11.2396 8.70169 11.1378 8.84167 11.0855 9.00234C11.0331 9.16302 11.033 9.33613 11.0852 9.49686L11.9412 12.1305C12.1812 12.8673 11.3372 13.4809 10.7092 13.0249L8.46919 11.3977C8.33255 11.2985 8.16804 11.245 7.99919 11.245C7.83034 11.245 7.66582 11.2985 7.52919 11.3977L5.28919 13.0249C4.66199 13.4809 3.81879 12.8673 4.05799 12.1305L4.91399 9.49686C4.96613 9.33613 4.96603 9.16302 4.91372 9.00234C4.86141 8.84167 4.75956 8.70169 4.62279 8.60246L2.38359 6.97606C1.75719 6.52006 2.07959 5.52806 2.85399 5.52806H5.62279C5.79163 5.52811 5.95615 5.47473 6.09281 5.37558C6.22947 5.27643 6.33125 5.13658 6.38359 4.97606L7.23959 2.34246L7.23879 2.34166Z" fill="#2F302C" />
</svg>
