<svg width="16" height="16" viewBox="0 0 16 16" fill="none" xmlns="http://www.w3.org/2000/svg">
  <path fill-rule="evenodd" clip-rule="evenodd" d="M5.83482 11.7655C5.68484 11.6155 5.60059 11.4121 5.60059 11.1999C5.60059 10.9878 5.68484 10.7844 5.83482 10.6343L8.46922 7.99994L5.83482 5.36554C5.68909 5.21465 5.60845 5.01257 5.61028 4.80281C5.6121 4.59306 5.69623 4.39241 5.84456 4.24408C5.99289 4.09575 6.19354 4.01162 6.40329 4.0098C6.61305 4.00797 6.81513 4.08861 6.96601 4.23434L10.166 7.43434C10.316 7.58436 10.4002 7.7878 10.4002 7.99994C10.4002 8.21207 10.316 8.41551 10.166 8.56554L6.96601 11.7655C6.81599 11.9155 6.61255 11.9998 6.40042 11.9998C6.18828 11.9998 5.98484 11.9155 5.83482 11.7655Z" fill="#7E7F7C" />
</svg>
