<svg width="60" height="60" viewBox="0 0 60 60" fill="none" xmlns="http://www.w3.org/2000/svg">
<path d="M56.6691 16.0364L30.4191 2.91137C30.289 2.84635 30.1455 2.8125 30 2.8125C29.8545 2.8125 29.7111 2.84635 29.581 2.91137L3.33095 16.0364C3.17511 16.1142 3.04405 16.234 2.95247 16.3822C2.8609 16.5304 2.81243 16.7012 2.81251 16.8754V43.1254C2.81156 43.3004 2.85961 43.4722 2.95124 43.6214C3.04286 43.7705 3.17439 43.891 3.33095 43.9692L29.581 57.0942C29.7111 57.1592 29.8545 57.1931 30 57.1931C30.1455 57.1931 30.289 57.1592 30.4191 57.0942L56.6691 43.9692C56.8256 43.891 56.9572 43.7705 57.0488 43.6214C57.1404 43.4722 57.1885 43.3004 57.1875 43.1254V16.8754C57.1876 16.7012 57.1391 16.5304 57.0476 16.3822C56.956 16.234 56.8249 16.1142 56.6691 16.0364ZM30 28.9523L22.6716 25.2876L46.096 12.8442L54.1585 16.8754L30 28.9523ZM15.1716 21.5376L38.596 9.09419L44.0335 11.8129L20.6119 24.2582L15.1716 21.5376ZM14.0625 23.0798L19.6875 25.8923V33.3623L17.5378 31.2126C17.3621 31.0368 17.1236 30.938 16.875 30.9379H14.0625V23.0798ZM30 4.79856L36.5363 8.06294L13.1119 20.5082L5.84626 16.8754L30 4.79856ZM4.68751 18.3923L12.1875 22.1423V31.8754C12.1875 32.1241 12.2863 32.3625 12.4621 32.5383C12.6379 32.7142 12.8764 32.8129 13.125 32.8129H16.4869L19.9622 36.2882C20.0933 36.4193 20.2603 36.5086 20.4422 36.5447C20.624 36.5809 20.8125 36.5623 20.9838 36.4914C21.155 36.4204 21.3014 36.3003 21.4045 36.1462C21.5075 35.992 21.5625 35.8108 21.5625 35.6254V26.8298L29.0625 30.5798V54.7336L4.68751 42.5461V18.3923ZM30.9375 54.7336V30.5798L55.3125 18.3923V42.5461L30.9375 54.7336Z" fill="black"/>
</svg>
