<svg width="60" height="60" viewBox="0 0 60 60" fill="none" xmlns="http://www.w3.org/2000/svg">
<path d="M54.41 14.8814L15.7332 8.04742C14.0383 7.74545 12.3917 8.9201 12.0977 10.59L9.60675 24.7453H6.0484C4.36743 24.7453 3 26.1003 3 27.765V48.9803C3 50.645 4.36743 52 6.0484 52H45.4978C47.1787 52 48.5462 50.645 48.5462 48.9803V41.5205C49.6762 41.7202 50.7671 41.9557 51.8119 41.3367C52.5957 40.8721 53.158 40.071 53.3152 39.1785L56.9523 18.5084C57.2515 16.8083 56.111 15.1812 54.41 14.8814ZM13.814 10.8863C13.9446 10.1448 14.671 9.61204 15.4275 9.74577L54.1043 16.5797C54.8633 16.7139 55.3711 17.4459 55.2365 18.2116L54.6364 21.6239L13.2121 14.305L13.814 10.8863ZM46.8042 48.9803C46.8042 49.6938 46.218 50.2745 45.4978 50.2745H6.0484C5.32811 50.2745 4.74194 49.6938 4.74194 48.9803V27.765C4.74194 27.0515 5.32811 26.4709 6.0484 26.4709H45.4978C46.218 26.4709 46.8042 27.0515 46.8042 27.765V48.9803ZM51.5993 38.8821C51.3285 40.4165 49.6083 39.9554 48.5462 39.7677V27.765C48.5462 26.1003 47.1787 24.7453 45.4978 24.7453H11.3753L12.913 16.0047L15.4362 16.4503L54.3368 23.3235L51.5993 38.8821Z" fill="black"/>
<path d="M23.2258 47H18.7742C18.3468 47 18 46.552 18 46C18 45.448 18.3468 45 18.7742 45H23.2258C23.6532 45 24 45.448 24 46C24 46.552 23.6535 47 23.2258 47Z" fill="black"/>
<path d="M14.0968 47H8.90323C8.40465 47 8 46.552 8 46C8 45.448 8.40465 45 8.90323 45H14.0968C14.5954 45 15 45.448 15 46C15 46.552 14.5954 47 14.0968 47Z" fill="black"/>
<path d="M33.0968 47H27.9032C27.4046 47 27 46.552 27 46C27 45.448 27.4046 45 27.9032 45H33.0968C33.5954 45 34 45.448 34 46C34 46.552 33.5958 47 33.0968 47Z" fill="black"/>
<path d="M42.2258 47H37.7742C37.3468 47 37 46.552 37 46C37 45.448 37.3468 45 37.7742 45H42.2258C42.6532 45 43 45.448 43 46C43 46.552 42.6532 47 42.2258 47Z" fill="black"/>
<path d="M16.7538 42H10.2462C9.00764 42 8 41.1452 8 40.0945V37.9055C8 36.8548 9.00764 36 10.2462 36H16.7538C17.9924 36 19 36.8548 19 37.9055V40.0945C19 41.1448 17.9919 42 16.7538 42ZM10.2462 37.524C9.99865 37.524 9.79695 37.6947 9.79695 37.9051V40.0941C9.79695 40.3045 9.99865 40.4752 10.2462 40.4752H16.7538C17.0013 40.4752 17.2031 40.3045 17.2031 40.0941V37.9051C17.2031 37.6947 17.0013 37.524 16.7538 37.524H10.2462Z" fill="black"/>
</svg>
