<svg width="60" height="60" viewBox="0 0 60 60" fill="none" xmlns="http://www.w3.org/2000/svg">
<path d="M30.0516 2.55566H30C22.7214 2.55566 15.7409 5.44708 10.5942 10.5938C5.44744 15.7406 2.55603 22.7211 2.55603 29.9997C2.55603 37.2783 5.44744 44.2588 10.5942 49.4055C15.7409 54.5522 22.7214 57.4437 30 57.4437C30.2387 57.4437 30.4676 57.3488 30.6364 57.1801C30.8052 57.0113 30.9 56.7824 30.9 56.5437C30.9 56.305 30.8052 56.076 30.6364 55.9073C30.4676 55.7385 30.2387 55.6437 30 55.6437C23.1988 55.6437 16.6762 52.9419 11.867 48.1327C7.0578 43.3235 4.35603 36.8009 4.35603 29.9997C4.35603 23.1985 7.0578 16.6758 11.867 11.8666C16.6762 7.05743 23.1988 4.35566 30 4.35566H30.0486C34.7306 4.36489 39.3208 5.65562 43.3214 8.08793C47.3221 10.5202 50.5805 14.0013 52.7436 18.1537C54.9066 22.3061 55.8916 26.9714 55.5919 31.6438C55.2922 36.3162 53.7191 40.8175 51.0432 44.6595C50.6474 45.2255 50.1321 45.6975 49.5336 46.0423C48.9351 46.387 48.2682 46.596 47.58 46.6545C46.8782 46.7161 46.1715 46.6232 45.5094 46.3824C44.8474 46.1416 44.2461 45.7587 43.7478 45.2607L42.9 44.4099C43.2264 44.2149 43.5474 44.0067 43.86 43.7823C44.4903 43.3404 45.0808 42.8443 45.6246 42.2997H45.6276C46.0912 41.8293 46.3502 41.1949 46.3483 40.5345C46.3464 39.8741 46.0837 39.2411 45.6174 38.7735L40.9566 34.1181C40.4883 33.6509 39.8538 33.3886 39.1923 33.3886C38.5309 33.3886 37.8964 33.6509 37.428 34.1181L36.732 34.8117C36.5032 35.0388 36.2521 35.2424 35.9826 35.4195C35.0879 35.998 34.0222 36.2532 32.9625 36.1426C31.9027 36.032 30.9127 35.5624 30.1566 34.8117L24.066 28.7211C23.4936 28.143 23.1729 27.362 23.174 26.5484C23.1752 25.7349 23.498 24.9548 24.072 24.3783L25.8816 22.5597C26.1139 22.3286 26.2982 22.0539 26.424 21.7514C26.5498 21.4489 26.6145 21.1245 26.6145 20.7969C26.6145 20.4692 26.5498 20.1448 26.424 19.8423C26.2982 19.5398 26.1139 19.2651 25.8816 19.0341L21.2286 14.3817C20.9983 14.1478 20.7235 13.9623 20.4205 13.8361C20.1175 13.7099 19.7923 13.6455 19.464 13.6467C18.838 13.6443 18.2346 13.8803 17.7762 14.3067C17.7484 14.3284 17.722 14.3519 17.697 14.3769C17.1567 14.9179 16.6629 15.5036 16.221 16.1277C14.4989 18.5284 13.592 21.4181 13.6335 24.3724C13.675 27.3267 14.6626 30.1898 16.4514 32.5413C19.5925 36.7046 23.2998 40.4088 27.4656 43.5465C29.8748 45.3724 32.8139 46.3625 35.8368 46.3665C37.6829 46.3644 39.5095 45.9899 41.2074 45.2655L42.4746 46.5345C43.1577 47.22 43.9833 47.7468 44.8927 48.0776C45.8022 48.4084 46.7733 48.535 47.7372 48.4485C48.6879 48.3671 49.609 48.0777 50.4354 47.6007C51.2618 47.1237 51.9732 46.4709 52.5192 45.6885C55.3834 41.5769 57.0673 36.7598 57.3883 31.7593C57.7094 26.7588 56.6553 21.7658 54.3405 17.3218C52.0256 12.8777 48.5383 9.15226 44.2566 6.54928C39.975 3.9463 35.0624 2.56518 30.0516 2.55566ZM28.5516 42.1089C24.5193 39.0737 20.9309 35.49 17.8902 31.4619C16.4457 29.5616 15.5997 27.2742 15.4602 24.8912C15.3206 22.5083 15.8938 20.1378 17.1066 18.0819L20.4384 21.4143C20.6073 21.5831 20.8363 21.678 21.075 21.678C21.3138 21.678 21.5428 21.5831 21.7116 21.4143C21.8805 21.2454 21.9753 21.0164 21.9753 20.7777C21.9753 20.5389 21.8805 20.3099 21.7116 20.1411L18.1506 16.5777C18.3906 16.2777 18.6426 15.9879 18.9132 15.7131C18.9373 15.6943 18.9603 15.6743 18.9822 15.6531C19.1132 15.527 19.2881 15.457 19.4699 15.4576C19.6516 15.4583 19.826 15.5297 19.956 15.6567L24.612 20.3127C24.677 20.3772 24.7284 20.4539 24.7634 20.5385C24.7985 20.6231 24.8163 20.7137 24.816 20.8053C24.8159 20.8955 24.7978 20.9848 24.7628 21.0679C24.7278 21.151 24.6765 21.2264 24.612 21.2895L22.791 23.1159C21.8833 24.0307 21.3739 25.2672 21.3739 26.556C21.3739 27.8447 21.8833 29.0812 22.791 29.9961L28.884 36.0843C29.843 37.035 31.0751 37.6623 32.408 37.8786C33.741 38.095 35.1082 37.8895 36.3186 37.2909L39.9786 40.9509C40.1484 41.1148 40.3757 41.2055 40.6117 41.2035C40.8477 41.2014 41.0734 41.1068 41.2403 40.9399C41.4071 40.773 41.5018 40.5473 41.5038 40.3113C41.5059 40.0753 41.4152 39.848 41.2512 39.6783L37.824 36.2511C37.884 36.1959 37.9494 36.1437 38.004 36.0867L38.7 35.3877C38.8306 35.2574 39.0076 35.1842 39.192 35.1842C39.3765 35.1842 39.5534 35.2574 39.684 35.3877L44.3448 40.0431C44.4751 40.1736 44.5487 40.3502 44.5496 40.5347C44.5505 40.7191 44.4786 40.8965 44.3496 41.0283C43.8782 41.5 43.3662 41.9295 42.8196 42.3117C40.7324 43.8093 38.2197 44.5978 35.651 44.5613C33.0823 44.5248 30.5931 43.6652 28.5492 42.1089H28.5516Z" fill="black"/>
</svg>
