<svg width="60" height="60" viewBox="0 0 60 60" fill="none" xmlns="http://www.w3.org/2000/svg">
<path d="M43.3722 51.127C43.0909 50.6421 42.4696 50.477 41.9841 50.7583L41.945 50.7809C41.46 51.0623 41.2949 51.6837 41.5763 52.1689C41.7647 52.4936 42.1054 52.675 42.4556 52.675C42.6284 52.675 42.8039 52.6306 42.9643 52.5376L43.0034 52.515C43.4885 52.2336 43.6535 51.6121 43.3722 51.127Z" fill="black"/>
<path d="M52.5158 17.008C49.0442 10.995 43.4388 6.69395 36.7322 4.8969C30.0259 3.09986 23.0209 4.02215 17.0079 7.49365C10.995 10.9652 6.69381 16.5706 4.89686 23.2771C3.09991 29.9836 4.0221 36.9886 7.49361 43.0015C10.6076 48.3952 15.557 52.4944 21.4299 54.5437C24.2138 55.515 27.1201 55.9998 30.0218 55.9998C33.1768 55.9998 36.3262 55.4264 39.3031 54.2823C39.8266 54.0811 40.0879 53.4935 39.8866 52.97C39.6853 52.4464 39.0976 52.1849 38.5743 52.3865C30.6504 55.4321 22.0722 54.0483 15.6633 49.2377L16.5732 44.4881L17.0116 44.3457C18.6684 43.8074 19.5784 42.0216 19.0404 40.3647L18.7186 39.3745C18.6442 39.1454 18.6446 38.9032 18.7196 38.6743C19.0019 37.8138 18.901 36.8724 18.4429 36.0912C17.9847 35.3101 17.2123 34.7624 16.3236 34.5886L14.0313 34.1407L9.60845 30.778C9.34347 30.5765 8.99663 30.5177 8.67996 30.6204L6.09052 31.4616C6.03558 30.5354 6.03477 29.6096 6.08697 28.6886C6.18914 28.7838 6.25566 28.8485 6.29659 28.8909C6.34727 28.9753 6.41004 29.0527 6.48357 29.1198C6.69502 29.3123 6.88657 29.3997 7.28876 29.3997C7.65834 29.3996 8.20546 29.3259 9.10886 29.1925C9.96564 29.0658 10.818 28.9231 10.8264 28.9217C11.1679 28.8645 11.4567 28.637 11.5926 28.3186C11.7285 28.0001 11.6926 27.6344 11.4975 27.3482L10.2523 25.5217L12.0359 24.2463C12.1547 24.1613 12.2538 24.0517 12.3265 23.9249L15.0913 19.0982L16.2057 17.904C17.3446 16.6834 17.6696 14.8977 17.0336 13.3543C16.6584 12.444 16.0031 11.6862 15.1835 11.1754C16.0712 10.4776 17.0176 9.83325 18.0235 9.25262C21.7141 7.12183 25.7416 6.08925 29.7269 6.04974L27.9134 8.32464L21.1884 10.6822C20.9153 10.7779 20.6959 10.9857 20.5856 11.2532L18.7075 15.806C18.5742 16.1295 18.6165 16.4986 18.8198 16.7834L21.5628 20.6257C21.1699 20.9841 20.7875 21.5061 20.3308 22.1543C20.1305 22.4386 19.9414 22.707 19.8107 22.8575C19.6971 22.9885 19.5833 23.1165 19.4706 23.2433C18.8806 23.907 18.2706 24.5934 17.8372 25.5103C16.8844 27.5273 17.0768 29.8715 18.3395 31.6284C19.5604 33.327 21.5731 34.1905 23.7214 33.9378C24.0714 33.8968 24.3977 33.816 24.7134 33.7378C25.5841 33.5224 25.86 33.5009 26.1393 33.7623C26.2752 33.8895 26.2876 33.9136 26.2849 34.3452C26.283 34.6198 26.2808 34.9614 26.3755 35.3515C26.5271 35.9756 26.9191 36.407 27.2339 36.7535C27.3904 36.9257 27.5523 37.1038 27.6022 37.2233C27.9189 37.9824 27.781 38.4028 27.4788 39.324C27.4529 39.4028 27.4265 39.4832 27.4 39.5657C26.9408 40.987 27.5808 42.3969 28.1455 43.6407C28.329 44.0446 28.5021 44.4258 28.6156 44.7628C29.5287 47.4724 30.2132 48.093 30.7626 48.3428C31.0503 48.4736 31.3481 48.531 31.6489 48.5309C33.113 48.5308 34.6407 47.1715 35.3425 46.3097C35.7832 45.7686 35.8918 45.2268 35.971 44.831C36.0105 44.6341 36.0416 44.4788 36.1009 44.3772C36.1917 44.2218 36.2987 44.1013 36.4341 43.9488C36.7063 43.6422 37.0452 43.2607 37.2647 42.5692C37.4315 42.0439 37.5527 41.9151 37.9539 41.4877C38.0238 41.4135 38.0983 41.3341 38.1782 41.2471C39.5309 39.7752 39.1825 38.6508 38.8136 37.4603C38.5031 36.4586 39.0461 35.8179 40.3591 34.5952C40.9283 34.0651 41.5167 33.5171 41.9716 32.8586C42.1707 32.5703 42.7763 31.6936 42.4016 30.8245C42.0342 29.9724 41.1005 29.8292 40.3504 29.7142C40.0541 29.6687 39.6065 29.6001 39.464 29.5069C38.8356 29.0961 38.4512 28.2387 38.0794 27.4095C38.0053 27.2444 37.9323 27.0815 37.8583 26.9234C37.7262 26.6412 37.5943 26.2999 37.4547 25.9385C37.0852 24.9822 36.6664 23.8982 35.9536 23.1426C35.3128 22.4637 34.1049 22.1366 33.0392 21.848C32.6808 21.751 32.3425 21.6594 32.1194 21.577C31.9324 21.508 31.7295 21.4955 31.5359 21.541C31.0172 21.6625 30.6936 21.7965 30.4533 21.9891C30.3899 22.0399 30.2019 22.207 30.0918 22.4755C29.72 22.2971 29.2087 21.9564 28.894 21.7466C28.8875 21.7423 28.8809 21.7379 28.8744 21.7335C28.9805 21.3092 28.8845 20.9687 28.784 20.756C28.2166 19.5559 26.3334 19.6499 25.9618 19.6815C25.7508 19.6991 25.4838 19.7086 25.2013 19.7185C24.7577 19.7343 24.2674 19.7519 23.7822 19.8064L23.8072 19.7367C24.1755 18.7106 25.1553 18.0212 26.2455 18.0212H26.8229C27.3836 18.0212 27.8384 17.5664 27.8384 17.0057C27.8384 16.445 27.3836 15.9902 26.8229 15.9902H26.2455C24.627 15.9902 23.1449 16.842 22.3142 18.1827L20.7994 16.0608L22.2897 12.4483L28.8611 10.1444C29.0413 10.0813 29.2002 9.96853 29.3193 9.81913L32.2405 6.15486C39.7048 6.86488 46.7309 11.0499 50.757 18.0234C51.8294 19.8808 52.6227 21.8363 53.1501 23.8364L52.7196 24.2203C52.1576 24.7217 51.8284 25.4409 51.8158 26.1935C51.8157 26.2018 51.8155 26.2099 51.8152 26.218L51.1138 24.2891C51.0093 24.0013 50.8553 23.7374 50.6565 23.5047L49.4053 22.0398C48.9202 21.472 48.214 21.1465 47.4674 21.1465H45.9359C45.3923 21.1465 44.8954 21.4443 44.639 21.9234C44.3825 22.4025 44.4106 22.9812 44.7121 23.4334L44.8671 23.6661C43.8775 24.5171 42.7329 25.198 41.5141 25.6573L39.4148 21.6361V20.739C39.4148 20.4616 39.3013 20.196 39.1005 20.0045L37.2101 18.1999C37.1058 18.1003 36.9815 18.0242 36.8455 17.9763L35.1438 17.3783C34.6144 17.1921 34.0348 17.4706 33.849 17.9997C33.663 18.5289 33.9412 19.1085 34.4703 19.2945L35.9657 19.8201L37.3838 21.1736V21.8854C37.3838 22.049 37.4234 22.2103 37.4991 22.3554L40.1273 27.3895C40.3636 27.8425 40.9001 28.0495 41.3788 27.8724L42.1441 27.5902C43.9219 26.9345 45.5698 25.8798 46.9096 24.5402C47.2519 24.1978 47.3051 23.6617 47.0365 23.2588L46.9824 23.1776H47.4674C47.619 23.1776 47.7625 23.2438 47.861 23.3591L49.1122 24.824C49.1525 24.8712 49.1837 24.9246 49.205 24.9832L50.5858 28.7799C50.7044 29.1062 50.9815 29.3491 51.3201 29.4242C51.3932 29.4404 51.4668 29.4483 51.5401 29.4483C51.8064 29.4483 52.0657 29.3434 52.2581 29.1508L52.9153 28.4936C53.3315 28.0773 53.618 27.5506 53.7549 26.9667C54.7714 35.1126 51.5773 43.539 44.8261 48.8379C44.3848 49.1841 44.3078 49.8225 44.6542 50.2638C45.0004 50.705 45.6387 50.782 46.08 50.4356C50.9542 46.61 54.3028 41.1384 55.5088 35.0285C56.7261 28.8597 55.6633 22.4597 52.5158 17.008ZM8.80204 32.7164L12.9898 35.9005C13.1136 35.9946 13.2572 36.059 13.4097 36.0888L15.9338 36.582C16.2559 36.6449 16.5246 36.8355 16.6907 37.1186C16.8568 37.4017 16.8917 37.7292 16.7895 38.0411C16.5793 38.6823 16.5783 39.3604 16.7868 40.002L17.1085 40.992C17.3008 41.5837 16.9756 42.2216 16.384 42.4139L15.3748 42.7418C15.0226 42.8562 14.7608 43.1532 14.6912 43.5166L13.8789 47.7567C12.0932 46.1222 10.5252 44.1905 9.25257 41.9861C7.69988 39.297 6.72976 36.4288 6.30218 33.5286L8.80204 32.7164ZM14.7208 16.5183L13.5261 17.7983C13.4728 17.8555 13.4262 17.9186 13.3873 17.9865L10.6743 22.723L8.26315 24.4471C7.81404 24.7682 7.70374 25.3891 8.01473 25.8453L8.9165 27.168C8.3967 27.2454 7.93023 27.3092 7.62006 27.343C7.56044 27.2859 7.49808 27.2279 7.43359 27.1679C7.19217 26.9437 6.85671 26.6442 6.35662 26.2065C7.18141 21.1017 9.64125 16.2925 13.51 12.6215C14.2508 12.8548 14.8587 13.4074 15.1557 14.1282C15.4898 14.9389 15.319 15.8771 14.7208 16.5183ZM23.0012 22.068C23.4542 21.8131 24.5055 21.7758 25.2731 21.7486C25.5808 21.7377 25.8714 21.7273 26.131 21.7056C26.268 21.6941 26.4202 21.6963 26.5637 21.7074C26.4996 21.872 26.4788 22.0525 26.5066 22.2317C26.5555 22.5468 26.7498 22.8206 27.0309 22.971C27.2214 23.0729 27.4866 23.2498 27.7673 23.4369C28.561 23.9661 29.4608 24.5658 30.306 24.6196C31.0746 24.6695 31.5023 24.2315 31.6855 24.0449C31.7001 24.0301 31.7139 24.0152 31.7286 24.0017C31.8317 23.9176 31.9284 23.8049 32.0003 23.6689C32.1627 23.7153 32.3334 23.7615 32.5083 23.809C33.1096 23.9718 34.2289 24.2748 34.4762 24.5369C34.9155 25.0025 35.2579 25.8889 35.56 26.6708C35.7127 27.066 35.8569 27.4389 36.0187 27.7847C36.0881 27.9331 36.1565 28.086 36.2259 28.2407C36.6946 29.286 37.2257 30.4708 38.3526 31.2074C38.8635 31.5414 39.4899 31.6374 40.0426 31.7222C40.1094 31.7325 40.186 31.7442 40.2638 31.757C39.9357 32.2147 39.4686 32.6496 38.9751 33.1091C37.7179 34.28 36.1532 35.7372 36.8738 38.0618C37.2139 39.1595 37.2298 39.2781 36.6829 39.8731C36.6083 39.9543 36.5389 40.0282 36.4738 40.0975C36.0054 40.5961 35.6354 40.99 35.3291 41.9548C35.2401 42.235 35.1248 42.3648 34.9155 42.6005C34.7481 42.789 34.5396 43.0238 34.3473 43.3528C34.117 43.7471 34.0408 44.1267 33.9798 44.4317C33.9196 44.7318 33.8854 44.8825 33.7676 45.0271C33.4994 45.3564 32.9991 45.8345 32.4855 46.1608C32.0082 46.4639 31.7295 46.5053 31.6345 46.4996C31.5261 46.3835 31.1336 45.8747 30.5405 44.1143C30.3942 43.6801 30.1913 43.2332 29.9951 42.801C29.5625 41.8484 29.1154 40.8632 29.3329 40.19C29.3586 40.1106 29.384 40.033 29.409 39.9571C29.7565 38.8978 30.0846 37.8975 29.4768 36.4411C29.2918 35.9976 28.9971 35.6735 28.7374 35.3875C28.5694 35.2025 28.3789 34.9929 28.3496 34.8723C28.3138 34.7251 28.3149 34.5552 28.3163 34.3585C28.3197 33.8278 28.325 33.026 27.5278 32.2795C26.4039 31.2275 25.0934 31.5516 24.226 31.7661C23.9596 31.8319 23.708 31.8942 23.4849 31.9205C22.0582 32.0876 20.7844 31.5493 19.9891 30.4427C19.1573 29.2852 19.0365 27.7275 19.6741 26.3778C19.9828 25.7246 20.449 25.1999 20.9889 24.5925C21.1068 24.4598 21.2259 24.3259 21.3449 24.1888C21.543 23.9605 21.7609 23.6513 21.9914 23.324C22.2665 22.9335 22.7788 22.2063 23.0012 22.068Z" fill="black"/>
<path d="M45.6429 38.9648L45.1543 37.123C45.0475 36.7208 44.7063 36.4245 44.2932 36.3751C43.8797 36.3268 43.4786 36.5336 43.28 36.8993C43.1687 37.1044 43.0685 37.3218 42.9716 37.5319C42.8086 37.8855 42.64 38.2511 42.4646 38.4529C42.3661 38.5662 42.113 38.6884 41.8684 38.8064C41.2837 39.0886 40.4829 39.475 40.177 40.4502C39.9871 41.0551 40.058 41.5337 40.1098 41.8831C40.1546 42.186 40.1649 42.291 40.0838 42.4816L40.0736 42.5052C39.7503 43.2638 39.1489 44.676 39.9923 45.8766C40.594 46.7334 41.2268 46.9537 41.7184 46.9537C41.8144 46.954 41.9052 46.9455 41.9892 46.9318C43.0251 46.7625 43.8039 45.6849 44.4403 43.5404L45.6349 39.5143C45.688 39.3353 45.6908 39.1451 45.6429 38.9648ZM42.4932 42.9626C42.1688 44.056 41.8818 44.5664 41.7162 44.7927C41.6971 44.7683 41.6764 44.7407 41.6542 44.7091C41.4601 44.4327 41.7502 43.7518 41.9422 43.3012L41.9524 43.2774C42.262 42.5508 42.1792 41.9928 42.119 41.5854C42.0803 41.3245 42.0665 41.2123 42.1149 41.0583C42.1547 40.9316 42.3927 40.8087 42.7512 40.6357C42.9101 40.5589 43.0851 40.4745 43.2618 40.3723L42.4932 42.9626Z" fill="black"/>
<path d="M31.4249 16.0716L31.3564 16.0476C30.8276 15.8623 30.2476 16.1405 30.062 16.6698C29.8763 17.1991 30.1549 17.7785 30.6842 17.9642L30.7526 17.9882C30.8638 18.0272 30.9772 18.0456 31.0888 18.0456C31.508 18.0456 31.9005 17.7839 32.0471 17.366C32.2328 16.8366 31.9542 16.2571 31.4249 16.0716Z" fill="black"/>
</svg>
