<svg width="17" height="17" viewBox="0 0 17 17" fill="none" xmlns="http://www.w3.org/2000/svg">
<path d="M15.75 15.75L10.75 10.75M12.4167 6.58333C12.4167 7.34938 12.2658 8.10792 11.9726 8.81565C11.6795 9.52339 11.2498 10.1664 10.7081 10.7081C10.1664 11.2498 9.52339 11.6795 8.81565 11.9726C8.10792 12.2658 7.34938 12.4167 6.58333 12.4167C5.81729 12.4167 5.05875 12.2658 4.35101 11.9726C3.64328 11.6795 3.00022 11.2498 2.45854 10.7081C1.91687 10.1664 1.48719 9.52339 1.19404 8.81565C0.900884 8.10792 0.75 7.34938 0.75 6.58333C0.75 5.03624 1.36458 3.55251 2.45854 2.45854C3.55251 1.36458 5.03624 0.75 6.58333 0.75C8.13043 0.75 9.61416 1.36458 10.7081 2.45854C11.8021 3.55251 12.4167 5.03624 12.4167 6.58333Z" stroke="#2F302C" stroke-width="1.5" stroke-linecap="round" stroke-linejoin="round"/>
</svg>
